<svg width="43" height="43" viewBox="0 0 43 43" fill="none" xmlns="http://www.w3.org/2000/svg">
<path d="M21.5 30.1L24.51 27.09L21.07 23.65H30.1V19.35H21.07L24.51 15.91L21.5 12.9L12.9 21.5L21.5 30.1ZM21.5 43C18.5258 43 15.7308 42.4356 13.115 41.3069C10.4992 40.1781 8.22375 38.6463 6.28875 36.7113C4.35375 34.7762 2.82188 32.5008 1.69313 29.885C0.564375 27.2692 0 24.4742 0 21.5C0 18.5258 0.564375 15.7308 1.69313 13.115C2.82188 10.4992 4.35375 8.22375 6.28875 6.28875C8.22375 4.35375 10.4992 2.82188 13.115 1.69313C15.7308 0.564375 18.5258 0 21.5 0C24.4742 0 27.2692 0.564375 29.885 1.69313C32.5008 2.82188 34.7762 4.35375 36.7113 6.28875C38.6463 8.22375 40.1781 10.4992 41.3069 13.115C42.4356 15.7308 43 18.5258 43 21.5C43 24.4742 42.4356 27.2692 41.3069 29.885C40.1781 32.5008 38.6463 34.7762 36.7113 36.7113C34.7762 38.6463 32.5008 40.1781 29.885 41.3069C27.2692 42.4356 24.4742 43 21.5 43Z" fill="#9E67E4"/>
</svg>
