<svg width="150" height="130" viewBox="0 0 150 130" fill="none" xmlns="http://www.w3.org/2000/svg">
<path d="M75 0C73.1787 0.000204546 71.4333 0.729137 70.1527 2.02418L1.38491 62.0296C0.513955 62.6722 -6.8175e-05 63.6904 6.78206e-09 64.7728C6.78206e-09 66.6556 1.52632 68.1819 3.40909 68.1819H20.4545V122.727C20.4545 126.491 23.5091 129.546 27.2727 129.546H54.5455C58.3091 129.546 61.3636 126.491 61.3636 122.727V81.8183H88.6364V122.727C88.6364 126.491 91.6909 129.546 95.4545 129.546H122.727C126.491 129.546 129.545 126.491 129.545 122.727V68.1819H146.591C148.474 68.1819 150 66.6556 150 64.7728C150 63.6903 149.486 62.6722 148.615 62.0296L79.8873 2.06414C79.874 2.05078 79.8607 2.03748 79.8473 2.02418C78.5667 0.729137 76.8213 0.000204546 75 0Z" fill="white"/>
</svg>
