<svg width="150" height="154" viewBox="0 0 150 154" fill="none" xmlns="http://www.w3.org/2000/svg">
<path d="M59.824 0C26.7504 0 0 26.7503 0 59.824C0 92.8977 26.7504 119.648 59.824 119.648C71.6322 119.648 82.5605 116.184 91.8255 110.301L135.044 153.519L150 138.563L107.331 96.0043C115.002 85.9421 119.648 73.4741 119.648 59.824C119.648 26.7503 92.8977 0 59.824 0ZM59.824 14.0762C85.1585 14.0762 105.572 34.4895 105.572 59.824C105.572 85.1585 85.1585 105.572 59.824 105.572C34.4895 105.572 14.0762 85.1585 14.0762 59.824C14.0762 34.4895 34.4895 14.0762 59.824 14.0762Z" fill="#9E67E4"/>
</svg>
