<svg width="150" height="105" viewBox="0 0 150 105" fill="none" xmlns="http://www.w3.org/2000/svg">
<path d="M131.965 49.2906C131.25 30.7215 116.73 15.8562 99 15.8562C95.9414 15.8562 93.0117 16.2774 90.1055 17.1446C83.3906 6.51593 72.0586 0 60 0C40.7461 0 24.9726 16.0544 24.0469 36.172C9.97263 40.26 0 53.9979 0 69.7674C0 89.0055 14.8008 104.651 33 104.651H123C137.895 104.651 150 91.8547 150 76.1099C150 63.9576 142.547 53.0689 131.965 49.2906ZM90.8789 59.3246L78 45.7105V82.4524H72V45.7105L59.1211 59.3246L54.8789 54.8403L75 33.5706L95.1211 54.8403L90.8789 59.3246Z" fill="white"/>
</svg>
