<svg width="151" height="164" viewBox="0 0 151 164" fill="none" xmlns="http://www.w3.org/2000/svg">
<path fill-rule="evenodd" clip-rule="evenodd" d="M23.313 140.733C38.9263 155.705 58.1756 163.191 81.2748 163.191C96.0326 163.191 109.507 160.197 121.698 153.994C133.89 147.792 143.728 139.878 151 130.253L124.479 104.801C113.143 118.276 99.4547 125.12 83.8413 125.12C71.864 125.12 61.8116 121.056 53.4702 112.929C45.3427 104.588 41.279 94.3214 41.279 82.1302C41.279 69.5112 45.3427 59.031 53.4702 50.6897C61.8116 42.3484 71.864 38.2846 84.0552 38.2846C98.3852 38.2846 111.646 44.9149 123.837 57.9616L149.289 31.2266C134.745 12.1912 109.721 0 81.4886 0C58.6034 0 39.3541 7.69971 23.5269 23.313C7.9136 38.7124 0 58.3894 0 82.344C0 106.085 7.69972 125.548 23.313 140.733ZM49.2495 80.7831C49.2495 71.1007 52.5176 62.8705 59.1743 56.2138C65.831 49.4359 74.3029 46.0474 84.5905 46.0474C94.8782 46.0474 103.35 49.4359 110.007 56.2138C116.663 62.8705 119.931 71.1007 119.931 80.7831C119.931 90.5867 116.663 98.8168 110.007 105.473C103.35 112.129 94.8782 115.519 84.5905 115.519C74.3029 115.519 65.831 112.129 59.1743 105.473C52.5176 98.8168 49.2495 90.5867 49.2495 80.7831ZM71.8689 99.0478L103.832 80.7831L71.8689 62.5183V99.0478Z" fill="white"/>
</svg>
