<svg width="678" height="237" viewBox="0 0 678 237" fill="none" xmlns="http://www.w3.org/2000/svg">
<path d="M136.185 198.866H140.079L132.471 213.123V221H129.027V213.123L121.509 198.866H125.403L130.764 209.589L136.185 198.866ZM139.133 212.913C139.133 210.547 139.941 208.57 141.529 206.923C143.146 205.276 145.183 204.437 147.669 204.437C150.154 204.437 152.191 205.276 153.779 206.923C155.396 208.57 156.205 210.547 156.205 212.913C156.205 215.309 155.396 217.316 153.779 218.963C152.191 220.611 150.154 221.419 147.669 221.419C145.183 221.419 143.146 220.611 141.529 218.963C139.941 217.316 139.133 215.309 139.133 212.913ZM152.88 212.913C152.88 211.446 152.371 210.158 151.353 209.109C150.364 208.031 149.136 207.492 147.669 207.492C146.201 207.492 144.973 208.031 143.955 209.109C142.966 210.158 142.457 211.446 142.457 212.913C142.457 214.411 142.966 215.699 143.955 216.747C144.973 217.795 146.201 218.334 147.669 218.334C149.136 218.334 150.364 217.795 151.353 216.747C152.371 215.699 152.88 214.411 152.88 212.913ZM166.371 221.389C162.058 221.389 159.303 218.694 159.303 214.381V204.856H162.597V214.351C162.597 216.777 164.005 218.334 166.371 218.334C168.767 218.334 170.145 216.837 170.145 214.351V204.856H173.469V214.381C173.469 218.784 170.804 221.389 166.371 221.389ZM180.795 221H177.5V204.856H180.645V207.163C181.604 205.336 183.131 204.437 185.228 204.437C185.917 204.437 186.546 204.527 187.145 204.707L186.845 207.911C186.276 207.702 185.677 207.612 185.078 207.612C182.562 207.612 180.795 209.349 180.795 212.734V221ZM214.944 204.407C216.891 204.407 218.448 205.036 219.616 206.294C220.815 207.522 221.414 209.229 221.414 211.356V221H218.119V211.895C218.119 209.05 216.681 207.492 214.435 207.492C212.039 207.492 210.392 209.259 210.392 211.985V221H207.097V211.955C207.097 209.169 205.659 207.492 203.383 207.492C200.987 207.492 199.31 209.289 199.31 212.045V221H196.015V204.856H199.25V207.193C200.208 205.485 202.005 204.407 204.132 204.407C206.258 204.437 208.235 205.485 209.104 207.372C210.212 205.575 212.458 204.407 214.944 204.407ZM240.684 212.614C240.684 213.063 240.654 213.602 240.564 214.201H227.955C228.434 216.717 230.201 218.424 233.316 218.424C235.143 218.424 237.359 217.735 238.797 216.687L240.175 219.113C238.528 220.341 235.922 221.359 233.196 221.359C227.146 221.359 224.54 217.136 224.54 212.883C224.54 210.457 225.289 208.451 226.817 206.863C228.344 205.276 230.351 204.467 232.777 204.467C235.083 204.467 237 205.186 238.468 206.653C239.935 208.121 240.684 210.098 240.684 212.614ZM232.777 207.312C230.291 207.312 228.434 208.99 227.955 211.506H237.359C237.09 208.96 235.203 207.312 232.777 207.312ZM247.22 198.297V221H243.925V198.297H247.22ZM250.513 212.913C250.513 210.547 251.321 208.57 252.909 206.923C254.526 205.276 256.563 204.437 259.049 204.437C261.535 204.437 263.571 205.276 265.159 206.923C266.776 208.57 267.585 210.547 267.585 212.913C267.585 215.309 266.776 217.316 265.159 218.963C263.571 220.611 261.535 221.419 259.049 221.419C256.563 221.419 254.526 220.611 252.909 218.963C251.321 217.316 250.513 215.309 250.513 212.913ZM264.26 212.913C264.26 211.446 263.751 210.158 262.733 209.109C261.744 208.031 260.516 207.492 259.049 207.492C257.581 207.492 256.353 208.031 255.335 209.109C254.347 210.158 253.837 211.446 253.837 212.913C253.837 214.411 254.347 215.699 255.335 216.747C256.353 217.795 257.581 218.334 259.049 218.334C260.516 218.334 261.744 217.795 262.733 216.747C263.751 215.699 264.26 214.411 264.26 212.913ZM283.382 207.103V198.297H286.707V221H283.442V218.754C282.034 220.521 280.207 221.389 278.021 221.389C275.715 221.389 273.768 220.581 272.24 218.963C270.713 217.316 269.934 215.309 269.934 212.913C269.934 210.547 270.713 208.54 272.24 206.923C273.768 205.276 275.685 204.467 277.991 204.467C280.118 204.467 281.915 205.336 283.382 207.103ZM283.622 212.913C283.622 211.386 283.143 210.128 282.184 209.079C281.226 208.031 279.968 207.492 278.44 207.492C276.913 207.492 275.655 208.031 274.696 209.079C273.738 210.128 273.259 211.386 273.259 212.913C273.259 214.441 273.738 215.759 274.696 216.807C275.655 217.855 276.913 218.364 278.44 218.364C279.968 218.364 281.226 217.855 282.184 216.807C283.143 215.759 283.622 214.441 283.622 212.913ZM292.695 202.73C291.407 202.73 290.418 201.771 290.418 200.484C290.418 199.256 291.407 198.297 292.695 198.297C293.923 198.297 294.881 199.256 294.881 200.484C294.881 201.771 293.923 202.73 292.695 202.73ZM294.282 204.856V221H290.987V204.856H294.282ZM313.748 212.614C313.748 213.063 313.718 213.602 313.628 214.201H301.019C301.498 216.717 303.265 218.424 306.38 218.424C308.207 218.424 310.423 217.735 311.861 216.687L313.239 219.113C311.592 220.341 308.986 221.359 306.26 221.359C300.21 221.359 297.604 217.136 297.604 212.883C297.604 210.457 298.353 208.451 299.881 206.863C301.408 205.276 303.415 204.467 305.841 204.467C308.147 204.467 310.064 205.186 311.532 206.653C312.999 208.121 313.748 210.098 313.748 212.614ZM305.841 207.312C303.355 207.312 301.498 208.99 301.019 211.506H310.423C310.154 208.96 308.267 207.312 305.841 207.312ZM321.752 221.389C319.266 221.389 316.9 220.251 315.552 218.005L317.679 216.088C318.667 217.675 320.284 218.544 321.812 218.544C323.369 218.544 324.478 217.645 324.478 216.537C324.478 215.759 324.028 215.13 323.1 214.68C322.83 214.531 322.171 214.261 321.153 213.872C320.165 213.452 319.476 213.153 319.116 212.943C317.409 212.045 316.541 210.727 316.541 208.96C316.541 207.612 317.05 206.504 318.038 205.635C319.056 204.767 320.404 204.317 322.051 204.317C324.358 204.317 326.125 205.156 327.353 206.803L325.436 208.84C324.478 207.672 323.309 207.073 321.902 207.073C320.554 207.073 319.745 207.852 319.745 208.84C319.745 209.619 320.195 210.218 321.093 210.607L322.74 211.296C323.759 211.715 324.507 212.045 325.017 212.314C326.844 213.273 327.772 214.62 327.772 216.388C327.772 217.795 327.203 218.993 326.095 219.952C324.987 220.91 323.519 221.389 321.752 221.389ZM332.528 217.406C333.815 217.406 334.774 218.424 334.774 219.832C334.774 221.689 333.426 223.486 330.76 225.223L329.742 223.815C331.15 222.737 332.018 221.899 332.318 221.329H332.198C331.21 221.329 330.371 220.491 330.371 219.443C330.371 218.334 331.359 217.406 332.528 217.406ZM352.013 216.507L356.146 204.856H359.77L353.091 222.468C351.653 226.271 349.826 227.859 347.071 227.859C345.933 227.859 345.004 227.619 344.315 227.17L344.794 224.325C345.543 224.654 346.232 224.834 346.801 224.834C348.119 224.834 349.167 223.905 349.976 222.078L350.485 220.88L343.477 204.856H347.28L352.013 216.507ZM360.694 212.913C360.694 210.547 361.503 208.57 363.09 206.923C364.707 205.276 366.744 204.437 369.23 204.437C371.716 204.437 373.753 205.276 375.34 206.923C376.957 208.57 377.766 210.547 377.766 212.913C377.766 215.309 376.957 217.316 375.34 218.963C373.753 220.611 371.716 221.419 369.23 221.419C366.744 221.419 364.707 220.611 363.09 218.963C361.503 217.316 360.694 215.309 360.694 212.913ZM374.441 212.913C374.441 211.446 373.932 210.158 372.914 209.109C371.926 208.031 370.698 207.492 369.23 207.492C367.762 207.492 366.534 208.031 365.516 209.109C364.528 210.158 364.018 211.446 364.018 212.913C364.018 214.411 364.528 215.699 365.516 216.747C366.534 217.795 367.762 218.334 369.23 218.334C370.698 218.334 371.926 217.795 372.914 216.747C373.932 215.699 374.441 214.411 374.441 212.913ZM387.932 221.389C383.62 221.389 380.864 218.694 380.864 214.381V204.856H384.159V214.351C384.159 216.777 385.566 218.334 387.932 218.334C390.329 218.334 391.706 216.837 391.706 214.351V204.856H395.031V214.381C395.031 218.784 392.365 221.389 387.932 221.389ZM402.356 221H399.062V204.856H402.207V207.163C403.165 205.336 404.693 204.437 406.789 204.437C407.478 204.437 408.107 204.527 408.706 204.707L408.407 207.911C407.837 207.702 407.238 207.612 406.639 207.612C404.124 207.612 402.356 209.349 402.356 212.734V221ZM436.506 204.407C438.452 204.407 440.01 205.036 441.178 206.294C442.376 207.522 442.975 209.229 442.975 211.356V221H439.68V211.895C439.68 209.05 438.243 207.492 435.996 207.492C433.6 207.492 431.953 209.259 431.953 211.985V221H428.658V211.955C428.658 209.169 427.221 207.492 424.944 207.492C422.548 207.492 420.871 209.289 420.871 212.045V221H417.576V204.856H420.811V207.193C421.77 205.485 423.567 204.407 425.693 204.407C427.82 204.437 429.796 205.485 430.665 207.372C431.773 205.575 434.02 204.407 436.506 204.407ZM446.072 212.913C446.072 210.547 446.88 208.57 448.468 206.923C450.085 205.276 452.122 204.437 454.608 204.437C457.094 204.437 459.13 205.276 460.718 206.923C462.335 208.57 463.144 210.547 463.144 212.913C463.144 215.309 462.335 217.316 460.718 218.963C459.13 220.611 457.094 221.419 454.608 221.419C452.122 221.419 450.085 220.611 448.468 218.963C446.88 217.316 446.072 215.309 446.072 212.913ZM459.819 212.913C459.819 211.446 459.31 210.158 458.292 209.109C457.303 208.031 456.075 207.492 454.608 207.492C453.14 207.492 451.912 208.031 450.894 209.109C449.906 210.158 449.396 211.446 449.396 212.913C449.396 214.411 449.906 215.699 450.894 216.747C451.912 217.795 453.14 218.334 454.608 218.334C456.075 218.334 457.303 217.795 458.292 216.747C459.31 215.699 459.819 214.411 459.819 212.913ZM485.381 204.407C487.327 204.407 488.885 205.036 490.053 206.294C491.251 207.522 491.85 209.229 491.85 211.356V221H488.555V211.895C488.555 209.05 487.118 207.492 484.871 207.492C482.475 207.492 480.828 209.259 480.828 211.985V221H477.533V211.955C477.533 209.169 476.096 207.492 473.82 207.492C471.423 207.492 469.746 209.289 469.746 212.045V221H466.452V204.856H469.686V207.193C470.645 205.485 472.442 204.407 474.568 204.407C476.695 204.437 478.672 205.485 479.54 207.372C480.648 205.575 482.895 204.407 485.381 204.407ZM511.12 212.614C511.12 213.063 511.091 213.602 511.001 214.201H498.391C498.871 216.717 500.638 218.424 503.753 218.424C505.58 218.424 507.796 217.735 509.234 216.687L510.611 219.113C508.964 220.341 506.358 221.359 503.633 221.359C497.583 221.359 494.977 217.136 494.977 212.883C494.977 210.457 495.726 208.451 497.253 206.863C498.781 205.276 500.787 204.467 503.213 204.467C505.52 204.467 507.436 205.186 508.904 206.653C510.372 208.121 511.12 210.098 511.12 212.614ZM503.213 207.312C500.727 207.312 498.871 208.99 498.391 211.506H507.796C507.526 208.96 505.639 207.312 503.213 207.312ZM517.656 221H514.362V204.856H517.596V207.133C518.555 205.455 520.412 204.437 522.718 204.437C524.485 204.437 525.982 205.006 527.21 206.174C528.438 207.342 529.067 208.99 529.067 211.176V221H525.743V212.105C525.743 209.139 524.185 207.492 521.879 207.492C519.393 207.492 517.656 209.409 517.656 212.164V221ZM542.699 217.466L543.837 220.042C542.639 220.94 541.141 221.389 539.374 221.389C535.87 221.389 534.073 219.203 534.073 215.219V207.672H531.287V204.856H534.103V199.136H537.367V204.856H542.938V207.672H537.367V215.279C537.367 217.346 538.206 218.364 539.853 218.364C540.722 218.364 541.68 218.065 542.699 217.466ZM550.86 221.389C548.374 221.389 546.008 220.251 544.66 218.005L546.786 216.088C547.775 217.675 549.392 218.544 550.92 218.544C552.477 218.544 553.585 217.645 553.585 216.537C553.585 215.759 553.136 215.13 552.207 214.68C551.938 214.531 551.279 214.261 550.261 213.872C549.272 213.452 548.583 213.153 548.224 212.943C546.517 212.045 545.648 210.727 545.648 208.96C545.648 207.612 546.157 206.504 547.146 205.635C548.164 204.767 549.512 204.317 551.159 204.317C553.465 204.317 555.232 205.156 556.46 206.803L554.544 208.84C553.585 207.672 552.417 207.073 551.009 207.073C549.662 207.073 548.853 207.852 548.853 208.84C548.853 209.619 549.302 210.218 550.201 210.607L551.848 211.296C552.866 211.715 553.615 212.045 554.124 212.314C555.951 213.273 556.88 214.62 556.88 216.388C556.88 217.795 556.311 218.993 555.203 219.952C554.094 220.91 552.627 221.389 550.86 221.389Z" fill="#9E67E4"/>
<path fill-rule="evenodd" clip-rule="evenodd" d="M564.418 21.2203C553.383 21.2203 547.271 26.9923 547.271 37.3478V40.5733H575.961V60.6053H547.271V133.094H523.335V60.6053H509.075V40.5733H523.335V36.8385C523.335 24.9551 526.73 15.7879 533.69 9.50671C540.651 3.22549 549.818 0 560.852 0C569.85 0 578.678 2.20692 587.166 6.79051L579.357 25.1249C573.585 22.5785 568.662 21.2203 564.418 21.2203ZM471.463 25.9737C477.065 31.5759 486.912 31.5759 492.514 25.9737C498.116 20.3715 498.116 10.5253 492.514 5.09287C486.912 -0.50931 477.065 -0.50931 471.463 5.09287C465.861 10.5253 465.861 20.3715 471.463 25.9737ZM493.872 133.094V40.5733H469.935V133.094H493.872ZM64.5099 134.961C46.3452 134.961 30.8968 129.02 18.5041 117.136C6.11146 105.083 0 89.6348 0 70.7911C0 51.7777 6.28122 36.1595 18.8437 23.9366C31.5759 11.5439 46.8545 5.43237 64.8494 5.43237C87.4278 5.43237 107.799 15.7879 118.834 31.4061L102.027 47.8731C92.1812 35.82 80.2978 29.7085 66.2075 29.7085C54.8334 29.7085 45.3267 33.613 37.6873 41.4221C30.048 49.0614 26.1435 58.9077 26.1435 70.7911C26.1435 82.335 29.8783 91.8417 37.5176 99.481C45.1569 107.12 54.6636 110.855 66.0377 110.855C80.6373 110.855 92.8602 104.744 102.537 92.5207L119.853 108.309C108.309 124.097 87.7674 134.961 64.5099 134.961ZM425.83 50.7592V40.5734H447.899V123.927C447.899 138.696 443.146 150.58 433.639 159.238C424.132 167.895 411.74 172.309 396.631 172.309C380.843 172.309 366.583 167.895 354.19 158.898L363.527 140.903C374.222 148.203 385.087 151.768 395.952 151.768C414.286 151.768 424.811 141.073 424.811 126.134V121.38C417.681 129.359 408.175 133.264 396.291 133.264C382.71 133.264 371.676 128.85 363.018 119.853C354.36 110.855 350.116 99.6509 350.116 85.9001C350.116 72.1493 354.699 60.7752 363.697 51.7777C372.694 42.7803 383.899 38.1967 397.31 38.1967C408.684 38.1967 418.191 42.4408 425.83 50.7592ZM374.222 86.0698C374.222 93.7092 376.599 99.9904 381.522 104.913C386.445 109.837 392.557 112.383 399.856 112.383C407.156 112.383 413.268 109.837 418.191 104.913C423.114 99.8206 425.491 93.5394 425.491 86.0698C425.491 78.6003 423.114 72.4888 418.191 67.5657C413.268 62.6426 407.156 60.0961 399.856 60.0961C392.557 60.0961 386.445 62.6426 381.522 67.5657C376.599 72.4888 374.222 78.6003 374.222 86.0698ZM651.615 40.5732L630.564 100.839L606.627 40.5732H578.956L619.36 132.075L617.492 136.32C612.909 145.996 606.967 150.919 599.497 150.919C595.932 150.919 591.858 149.901 587.614 147.863L583.54 167.895C588.463 170.951 594.405 172.479 601.365 172.479C619.699 172.479 631.583 161.275 640.58 137.678L677.758 40.5732H651.615ZM141.886 52.2869C132.549 61.6239 127.965 73.1678 127.965 86.7488C127.965 100.5 132.549 112.043 141.886 121.38C151.223 130.717 163.106 135.471 177.536 135.471C191.966 135.471 203.849 130.717 213.186 121.38C222.523 112.043 227.107 100.5 227.107 86.7488C227.107 73.1678 222.523 61.6239 213.186 52.2869C203.849 42.7802 191.966 38.0269 177.536 38.0269C163.106 38.0269 151.223 42.7802 141.886 52.2869ZM200.157 86.7488L164.06 107.376V66.1219L200.157 86.7488ZM240.399 86.2396C240.399 59.6143 261.983 38.0269 288.611 38.0269C315.24 38.0269 336.824 59.6143 336.824 86.2396C336.824 112.865 315.24 134.452 288.611 134.452C261.983 134.452 240.399 112.865 240.399 86.2396ZM258.296 66.665L258.567 66.256C264.008 58.0929 272.645 52.4312 282.267 50.7217L282.753 50.6392L281.94 46.081L281.455 46.1663C270.596 48.0967 260.85 54.4823 254.715 63.687L254.441 64.099L258.296 66.665ZM263.952 70.5582L267.854 73.186L268.195 72.6741C271.918 67.1507 277.791 63.2692 284.315 62.0157L284.915 61.9038L284.036 57.2809L283.432 57.4016C275.684 58.8787 268.707 63.49 264.293 70.0492L263.952 70.5582ZM288.611 68.0804C278.583 68.0834 270.452 76.211 270.452 86.2396C270.452 96.2682 278.583 104.396 288.611 104.396C298.64 104.396 306.768 96.2682 306.768 86.2396C306.768 76.211 298.64 68.0834 288.611 68.0804ZM292.549 111.588L293.308 116.231L293.914 116.131C302.11 114.789 309.431 110.046 314.001 103.119L314.342 102.601L310.411 100.017L310.073 100.529C306.22 106.365 300.053 110.364 293.158 111.488L292.549 111.588ZM295.765 126.316C306.626 124.386 316.373 117.997 322.511 108.789L322.782 108.38L318.927 105.809L318.656 106.221C313.215 114.389 304.573 120.051 294.956 121.755L294.473 121.84L295.279 126.398L295.765 126.316Z" fill="white"/>
</svg>
